<?xml version="1.0" encoding="UTF-8"?>
<svg id="Layer_1" data-name="Layer 1" xmlns="http://www.w3.org/2000/svg" viewBox="0 0 512 256">
  <g>
    <path fill="white" d="M34.26,187.95c-20.98-3.49-12.01-37.4-14.17-51.36-1.19-7.74-7.16-6.64-8.66-8.65-.25-.34,1.18-6.41-.38-8.24,3.21.48,5.51-.53,7.28-3.19,3.86-5.81,1-26.31,1.83-34.57,1.68-16.64,14.66-20.11,29.12-17.76v7.29c-30.21-4.19-18.24,25.59-20.99,43.17-.42,2.66-3.2,8.47-6.31,8.72v1.78c2.87.52,5.89,6.07,6.31,8.72,1.41,9.04-.72,21.37.03,30.92,1.06,13.53,8.26,16.51,20.96,14.07v9.1c-4.6-.53-10.62.73-15.01,0Z"/>
    <path fill="white" d="M140.74,64.17c19.04,3.15,11.55,32.72,13.44,45.72.76,5.24,3.15,9.37,8.76,9.89l.16,7.54c-2.6,1.17-5.12,1.61-6.94,4.14-4.54,6.28-1.28,30.58-2.17,39.69-1.33,13.55-15.33,18.28-27.35,16.8v-9.11c9.67.31,18.03,1.47,19.15-10.43,1.14-12.11-3.69-34.06,5.39-42.85.84-.82,3.52-1.47,2.76-2.22-.11-.11-1.86-.46-2.76-1.34-9.1-8.82-3.99-29.29-5.4-41.02-1.18-9.8-10.17-10-18.23-9.53v-7.29c4.07.47,9.32-.64,13.2,0Z"/>
    <path fill="white" d="M69.3,119.69v50.06c-10.22-6.32-20.77-14.87-24.74-26.68-.85-2.53-2.81-7.03-.76-9.28l25.49-14.09Z"/>
    <path fill="white" d="M73.85,138.8l40.04,28.2c-12.44,5.4-27.69,9.48-40.56,3.67-.36-.71.52-1.19.52-1.38v-30.49Z"/>
    <path fill="white" d="M82.94,106.93l-41.85,21.86c.26-8.59,2.62-17.1,6.8-24.59,1.75-3.14,11.42-16.88,15.01-15.06,5.11,6.19,13.6,10.12,19.07,15.59.75.75,1.31.81.96,2.2Z"/>
    <path fill="white" d="M107.53,132.42l.46-50.06c9.45,5.2,19.27,14.97,22.98,25.26,1.09,3.02,3.58,8.91,1.14,11.63l-24.58,13.18Z"/>
    <path fill="white" d="M93.87,145.18l40.94-21.85c.44,7.76-.13,14.8-2.94,22.08-1.53,3.95-9.34,17.6-13.68,16.94-4.33-.65-19.59-14.17-24.33-17.17Z"/>
    <path fill="white" d="M103.88,113.32l-38.23-28.2c10.89-6.72,26.39-9.18,38.23-4.11v32.31Z"/>
  </g>
  <g>
    <path fill="white" d="M406.96,135.16l-.92-10.91c6.63-2.19,13.86-.38,20.48-.19,3.36.09,7.35-1.73,11.28.27l1.01,40.87h-10.93s-.46-11.84-.46-11.84l-6.38,6.35c-32.01,19.13-61.53-10.61-52.58-44.39,8.67-32.71,58.12-39.68,68.52-4.74l-13.05-1.05c-17.27-23.93-46.12-6.79-44.27,20.61,2.01,29.79,39.95,33.82,45.49,5.02h-18.2Z"/>
    <path fill="white" d="M214.92,112.41h10.93s.45,7.28.45,7.28c6.71-11.76,24.93-11.64,30.51.91h1.34c5.76-11.51,25.04-13,32.17-2.12.52.79,2.88,5.82,2.88,6.22v40.5h-10.92v-35.04c0-.85-2.8-5.5-3.71-6.3-3.81-3.34-9.57-2.82-13.54-.03-1.2.84-4.59,5.37-4.59,6.33v35.04h-11.83v-35.95c0-3.59-5.81-7.75-9.46-7.66-4.89.12-12.38,5.4-12.38,10.39v33.22h-11.83v-52.79Z"/>
    <path fill="white" d="M500.95,138.43c0,15.04-12.19,27.22-27.22,27.22s-27.22-12.19-27.22-27.22,12.19-27.22,27.22-27.22,27.22,12.19,27.22,27.22ZM474.78,121.09c-20.67-.78-21.91,33.74-.93,34.17,20.08.41,19.75-33.46.93-34.17Z"/>
    <rect fill="white" x="191.26" y="88.74" width="10.92" height="76.45"/>
    <path fill="white" d="M345.07,156.09c-1.51.49-1.62,2.33-3.18,3.64-16.22,13.57-38.66,1.83-39.63-18.62-1.21-25.61,24.71-40.05,43.71-21.43v-7.29s10.07.43,10.07.43l.68,51c-1.03,5.68-.35,10.49-3.09,15.84-10.41,20.25-46.68,15.77-49.51-8.09l12.16.12c1.91.65,2.23,6.56,5.18,8.48,4.27,2.77,15.74,2.27,19.54-1.3,1.33-1.25,4.08-7.19,4.08-8.66v-14.11ZM325.71,121.72c-14.68,2.73-16.6,29.56.19,33.05,24.09,5.01,25.47-37.82-.19-33.05Z"/>
  </g>
</svg>
